<?xml version="1.0" encoding="utf-8"?>
<!-- Generator: Adobe Illustrator 25.2.3, SVG Export Plug-In . SVG Version: 6.00 Build 0)  -->
<svg version="1.1" id="Layer_3" xmlns="http://www.w3.org/2000/svg" xmlns:xlink="http://www.w3.org/1999/xlink" x="0px" y="0px"
	 viewBox="0 0 64 64" style="enable-background:new 0 0 64 64;" xml:space="preserve">
<g>
	<path d="M3,45v1c0,1.654,1.346,3,3,3h31.527c-0.846-1.209-1.506-2.555-1.938-4H3z"/>
	<path d="M35,41c0-7.72,6.28-14,14-14c1.39,0,2.731,0.21,4,0.59V20c0-1.654-1.346-3-3-3H30.605c-2.593,0-5-1.288-6.438-3.445
		C23.102,11.955,21.317,11,19.395,11H6c-1.654,0-3,1.346-3,3v29h32.16C35.065,42.345,35,41.681,35,41z M7,36c0,0.553-0.447,1-1,1
		s-1-0.447-1-1v-2c0-0.553,0.447-1,1-1s1,0.447,1,1V36z M7,30c0,0.552-0.447,1-1,1s-1-0.448-1-1V20c0-0.552,0.447-1,1-1s1,0.448,1,1
		V30z"/>
	<polygon points="43.795,46.205 45.221,45.635 44.365,44.779 	"/>
	<path d="M49,29c-6.617,0-12,5.383-12,12s5.383,12,12,12s12-5.383,12-12S55.617,29,49,29z M47.707,46.707
		c-0.096,0.096-0.21,0.171-0.336,0.222l-5,2C42.251,48.977,42.125,49,42,49c-0.26,0-0.516-0.102-0.707-0.293
		c-0.283-0.283-0.37-0.707-0.222-1.078l2-5c0.051-0.126,0.126-0.24,0.222-0.336l10-10c0.391-0.391,1.023-0.391,1.414,0l3,3
		c0.391,0.391,0.391,1.023,0,1.414L47.707,46.707z"/>
	<rect x="44.429" y="38.379" transform="matrix(0.7071 -0.7071 0.7071 0.7071 -13.1396 47.2782)" width="12.142" height="2.243"/>
</g>
</svg>
